<mxfile host="drawio-plugin" modified="2024-06-12T19:55:50.371Z" agent="Mozilla/5.0 (X11; Linux x86_64) AppleWebKit/537.36 (KHTML, like Gecko) Chrome/122.0.0.0 Safari/537.36" etag="VWI88Z-d-GrU753B54do" version="22.1.22" type="embed">
  <diagram name="Страница — 1" id="gBxbLlSR4YeY3ZpLUvjq">
    <mxGraphModel dx="1031" dy="1731" grid="1" gridSize="10" guides="1" tooltips="1" connect="1" arrows="1" fold="1" page="1" pageScale="1" pageWidth="1169" pageHeight="827" math="0" shadow="0">
      <root>
        <mxCell id="0" />
        <mxCell id="1" parent="0" />
        <mxCell id="i9VxTOtF9vTsRiVHvW3n-1" value="&lt;span style=&quot;font-size: 25px;&quot;&gt;Cabin&lt;/span&gt;" style="rounded=0;whiteSpace=wrap;html=1;" parent="1" vertex="1">
          <mxGeometry x="710" y="780" width="360" height="60" as="geometry" />
        </mxCell>
        <mxCell id="i9VxTOtF9vTsRiVHvW3n-71" style="edgeStyle=orthogonalEdgeStyle;rounded=0;orthogonalLoop=1;jettySize=auto;html=1;" parent="1" source="i9VxTOtF9vTsRiVHvW3n-2" target="i9VxTOtF9vTsRiVHvW3n-4" edge="1">
          <mxGeometry relative="1" as="geometry">
            <Array as="points" />
          </mxGeometry>
        </mxCell>
        <mxCell id="i9VxTOtF9vTsRiVHvW3n-2" value="&lt;font style=&quot;font-size: 25px;&quot;&gt;Locked&lt;/font&gt;" style="rounded=0;whiteSpace=wrap;html=1;" parent="1" vertex="1">
          <mxGeometry x="730" y="630" width="120" height="60" as="geometry" />
        </mxCell>
        <mxCell id="i9VxTOtF9vTsRiVHvW3n-3" value="&lt;span style=&quot;font-size: 25px;&quot;&gt;Stopped&lt;/span&gt;" style="rounded=0;whiteSpace=wrap;html=1;glass=0;" parent="1" vertex="1">
          <mxGeometry x="940" y="630" width="120" height="60" as="geometry" />
        </mxCell>
        <mxCell id="i9VxTOtF9vTsRiVHvW3n-4" value="&lt;span style=&quot;font-size: 25px;&quot;&gt;Unlocked&lt;/span&gt;" style="rounded=0;whiteSpace=wrap;html=1;" parent="1" vertex="1">
          <mxGeometry x="730" y="440" width="120" height="60" as="geometry" />
        </mxCell>
        <mxCell id="i9VxTOtF9vTsRiVHvW3n-6" value="&lt;span style=&quot;font-size: 25px;&quot;&gt;Moving&lt;/span&gt;" style="rounded=0;whiteSpace=wrap;html=1;" parent="1" vertex="1">
          <mxGeometry x="940" y="440" width="120" height="60" as="geometry" />
        </mxCell>
        <mxCell id="i9VxTOtF9vTsRiVHvW3n-7" value="" style="endArrow=classic;html=1;rounded=0;fontSize=12;startSize=8;endSize=8;edgeStyle=orthogonalEdgeStyle;" parent="1" source="i9VxTOtF9vTsRiVHvW3n-4" target="i9VxTOtF9vTsRiVHvW3n-6" edge="1">
          <mxGeometry width="50" height="50" relative="1" as="geometry">
            <mxPoint x="820" y="550" as="sourcePoint" />
            <mxPoint x="1109" y="630" as="targetPoint" />
          </mxGeometry>
        </mxCell>
        <mxCell id="i9VxTOtF9vTsRiVHvW3n-9" value="" style="endArrow=classic;html=1;rounded=0;fontSize=12;startSize=8;endSize=8;edgeStyle=orthogonalEdgeStyle;" parent="1" source="i9VxTOtF9vTsRiVHvW3n-6" target="i9VxTOtF9vTsRiVHvW3n-3" edge="1">
          <mxGeometry width="50" height="50" relative="1" as="geometry">
            <mxPoint x="860" y="550" as="sourcePoint" />
            <mxPoint x="910" y="500" as="targetPoint" />
          </mxGeometry>
        </mxCell>
        <mxCell id="i9VxTOtF9vTsRiVHvW3n-10" value="" style="endArrow=classic;html=1;rounded=0;fontSize=12;startSize=8;endSize=8;edgeStyle=orthogonalEdgeStyle;" parent="1" source="i9VxTOtF9vTsRiVHvW3n-3" target="i9VxTOtF9vTsRiVHvW3n-2" edge="1">
          <mxGeometry width="50" height="50" relative="1" as="geometry">
            <mxPoint x="820" y="550" as="sourcePoint" />
            <mxPoint x="870" y="500" as="targetPoint" />
          </mxGeometry>
        </mxCell>
        <mxCell id="i9VxTOtF9vTsRiVHvW3n-14" value="&lt;font style=&quot;font-size: 25px;&quot;&gt;Close&lt;/font&gt;" style="rounded=0;whiteSpace=wrap;html=1;" parent="1" vertex="1">
          <mxGeometry x="1290" y="440" width="120" height="60" as="geometry" />
        </mxCell>
        <mxCell id="i9VxTOtF9vTsRiVHvW3n-15" value="&lt;font style=&quot;font-size: 25px;&quot;&gt;Closing&lt;/font&gt;" style="rounded=0;whiteSpace=wrap;html=1;" parent="1" vertex="1">
          <mxGeometry x="1290" y="630" width="120" height="60" as="geometry" />
        </mxCell>
        <mxCell id="i9VxTOtF9vTsRiVHvW3n-16" value="&lt;font style=&quot;font-size: 25px;&quot;&gt;Opening&lt;/font&gt;" style="rounded=0;whiteSpace=wrap;html=1;" parent="1" vertex="1">
          <mxGeometry x="1570" y="440" width="120" height="60" as="geometry" />
        </mxCell>
        <mxCell id="i9VxTOtF9vTsRiVHvW3n-17" value="&lt;span style=&quot;font-size: 25px;&quot;&gt;Open&lt;/span&gt;" style="rounded=0;whiteSpace=wrap;html=1;" parent="1" vertex="1">
          <mxGeometry x="1570" y="630" width="120" height="60" as="geometry" />
        </mxCell>
        <mxCell id="i9VxTOtF9vTsRiVHvW3n-18" value="" style="endArrow=classic;html=1;rounded=0;fontSize=12;startSize=8;endSize=8;curved=1;" parent="1" source="i9VxTOtF9vTsRiVHvW3n-16" target="i9VxTOtF9vTsRiVHvW3n-17" edge="1">
          <mxGeometry width="50" height="50" relative="1" as="geometry">
            <mxPoint x="1380" y="510" as="sourcePoint" />
            <mxPoint x="1430" y="460" as="targetPoint" />
          </mxGeometry>
        </mxCell>
        <mxCell id="i9VxTOtF9vTsRiVHvW3n-19" value="" style="endArrow=classic;html=1;rounded=0;fontSize=12;startSize=8;endSize=8;curved=1;" parent="1" source="i9VxTOtF9vTsRiVHvW3n-17" target="i9VxTOtF9vTsRiVHvW3n-15" edge="1">
          <mxGeometry width="50" height="50" relative="1" as="geometry">
            <mxPoint x="1380" y="510" as="sourcePoint" />
            <mxPoint x="1430" y="460" as="targetPoint" />
          </mxGeometry>
        </mxCell>
        <mxCell id="i9VxTOtF9vTsRiVHvW3n-20" value="" style="endArrow=classic;html=1;rounded=0;fontSize=12;startSize=8;endSize=8;curved=1;" parent="1" source="i9VxTOtF9vTsRiVHvW3n-15" target="i9VxTOtF9vTsRiVHvW3n-14" edge="1">
          <mxGeometry width="50" height="50" relative="1" as="geometry">
            <mxPoint x="1380" y="510" as="sourcePoint" />
            <mxPoint x="1430" y="460" as="targetPoint" />
          </mxGeometry>
        </mxCell>
        <mxCell id="i9VxTOtF9vTsRiVHvW3n-21" value="&lt;span style=&quot;font-size: 25px;&quot;&gt;Doors&lt;/span&gt;" style="rounded=0;whiteSpace=wrap;html=1;" parent="1" vertex="1">
          <mxGeometry x="1330" y="767" width="360" height="60" as="geometry" />
        </mxCell>
        <mxCell id="i9VxTOtF9vTsRiVHvW3n-22" value="" style="endArrow=classic;html=1;rounded=0;fontSize=12;startSize=8;endSize=8;curved=0;" parent="1" source="i9VxTOtF9vTsRiVHvW3n-14" target="i9VxTOtF9vTsRiVHvW3n-16" edge="1">
          <mxGeometry width="50" height="50" relative="1" as="geometry">
            <mxPoint x="1320" y="600" as="sourcePoint" />
            <mxPoint x="1370" y="550" as="targetPoint" />
          </mxGeometry>
        </mxCell>
        <mxCell id="i9VxTOtF9vTsRiVHvW3n-23" value="Timer" style="edgeLabel;html=1;align=center;verticalAlign=middle;resizable=0;points=[];fontSize=12;" parent="i9VxTOtF9vTsRiVHvW3n-22" vertex="1" connectable="0">
          <mxGeometry x="0.1484" y="2" relative="1" as="geometry">
            <mxPoint x="-12" y="22" as="offset" />
          </mxGeometry>
        </mxCell>
        <mxCell id="i9VxTOtF9vTsRiVHvW3n-25" value="Timer" style="edgeLabel;html=1;align=center;verticalAlign=middle;resizable=0;points=[];fontSize=12;" parent="1" vertex="1" connectable="0">
          <mxGeometry x="1500" y="520" as="geometry">
            <mxPoint x="108" y="49" as="offset" />
          </mxGeometry>
        </mxCell>
        <mxCell id="i9VxTOtF9vTsRiVHvW3n-27" value="Timer" style="edgeLabel;html=1;align=center;verticalAlign=middle;resizable=0;points=[];fontSize=12;" parent="1" vertex="1" connectable="0">
          <mxGeometry x="1560" y="540" as="geometry">
            <mxPoint x="-189" y="40" as="offset" />
          </mxGeometry>
        </mxCell>
        <mxCell id="i9VxTOtF9vTsRiVHvW3n-28" value="Timer" style="edgeLabel;html=1;align=center;verticalAlign=middle;resizable=0;points=[];fontSize=12;" parent="1" vertex="1" connectable="0">
          <mxGeometry x="1542.25" y="558" as="geometry">
            <mxPoint x="-49" y="84" as="offset" />
          </mxGeometry>
        </mxCell>
        <mxCell id="i9VxTOtF9vTsRiVHvW3n-29" value="" style="endArrow=classic;html=1;rounded=0;fontSize=12;startSize=8;endSize=8;curved=1;" parent="1" target="i9VxTOtF9vTsRiVHvW3n-14" edge="1">
          <mxGeometry width="50" height="50" relative="1" as="geometry">
            <mxPoint x="1220" y="470" as="sourcePoint" />
            <mxPoint x="1340" y="440" as="targetPoint" />
          </mxGeometry>
        </mxCell>
        <mxCell id="i9VxTOtF9vTsRiVHvW3n-54" value="&lt;font style=&quot;font-size: 25px;&quot;&gt;Waiting&lt;/font&gt;" style="rounded=0;whiteSpace=wrap;html=1;" parent="1" vertex="1">
          <mxGeometry x="890" y="-110" width="120" height="60" as="geometry" />
        </mxCell>
        <mxCell id="i9VxTOtF9vTsRiVHvW3n-55" value="&lt;span style=&quot;font-size: 25px;&quot;&gt;Controller&lt;/span&gt;" style="rounded=0;whiteSpace=wrap;html=1;" parent="1" vertex="1">
          <mxGeometry x="840" y="-250" width="360" height="60" as="geometry" />
        </mxCell>
        <mxCell id="i9VxTOtF9vTsRiVHvW3n-56" value="" style="endArrow=classic;html=1;rounded=0;fontSize=12;startSize=8;endSize=8;curved=1;entryX=0;entryY=0.5;entryDx=0;entryDy=0;" parent="1" target="i9VxTOtF9vTsRiVHvW3n-54" edge="1">
          <mxGeometry width="50" height="50" relative="1" as="geometry">
            <mxPoint x="760" y="-80" as="sourcePoint" />
            <mxPoint x="730" y="-70" as="targetPoint" />
          </mxGeometry>
        </mxCell>
        <mxCell id="i9VxTOtF9vTsRiVHvW3n-61" style="edgeStyle=orthogonalEdgeStyle;rounded=0;orthogonalLoop=1;jettySize=auto;html=1;" parent="1" source="i9VxTOtF9vTsRiVHvW3n-57" target="i9VxTOtF9vTsRiVHvW3n-62" edge="1">
          <mxGeometry relative="1" as="geometry">
            <mxPoint x="1500" y="-80" as="targetPoint" />
            <Array as="points">
              <mxPoint x="1450" y="-40" />
              <mxPoint x="1450" y="-40" />
            </Array>
          </mxGeometry>
        </mxCell>
        <mxCell id="i9VxTOtF9vTsRiVHvW3n-57" value="&lt;font style=&quot;font-size: 25px;&quot;&gt;Update&lt;/font&gt;&lt;div&gt;&lt;font style=&quot;font-size: 25px;&quot;&gt;Target&lt;/font&gt;&lt;/div&gt;" style="rounded=0;whiteSpace=wrap;html=1;" parent="1" vertex="1">
          <mxGeometry x="1360" y="-110" width="120" height="60" as="geometry" />
        </mxCell>
        <mxCell id="i9VxTOtF9vTsRiVHvW3n-65" style="edgeStyle=orthogonalEdgeStyle;rounded=0;orthogonalLoop=1;jettySize=auto;html=1;exitX=0;exitY=0.5;exitDx=0;exitDy=0;entryX=1;entryY=0.5;entryDx=0;entryDy=0;" parent="1" source="i9VxTOtF9vTsRiVHvW3n-62" target="i9VxTOtF9vTsRiVHvW3n-64" edge="1">
          <mxGeometry relative="1" as="geometry" />
        </mxCell>
        <mxCell id="i9VxTOtF9vTsRiVHvW3n-62" value="&lt;span style=&quot;font-size: 25px;&quot;&gt;Moving&lt;/span&gt;" style="rounded=0;whiteSpace=wrap;html=1;" parent="1" vertex="1">
          <mxGeometry x="1360" y="80" width="120" height="60" as="geometry" />
        </mxCell>
        <mxCell id="i9VxTOtF9vTsRiVHvW3n-67" style="edgeStyle=orthogonalEdgeStyle;rounded=0;orthogonalLoop=1;jettySize=auto;html=1;" parent="1" source="i9VxTOtF9vTsRiVHvW3n-64" target="i9VxTOtF9vTsRiVHvW3n-57" edge="1">
          <mxGeometry relative="1" as="geometry">
            <Array as="points">
              <mxPoint x="950" y="10" />
              <mxPoint x="1390" y="10" />
            </Array>
          </mxGeometry>
        </mxCell>
        <mxCell id="i9VxTOtF9vTsRiVHvW3n-64" value="&lt;span style=&quot;font-size: 25px;&quot;&gt;Reached&lt;/span&gt;&lt;div&gt;&lt;span style=&quot;font-size: 25px;&quot;&gt;Target&lt;/span&gt;&lt;/div&gt;" style="rounded=0;whiteSpace=wrap;html=1;" parent="1" vertex="1">
          <mxGeometry x="890" y="80" width="120" height="60" as="geometry" />
        </mxCell>
        <mxCell id="i9VxTOtF9vTsRiVHvW3n-66" style="edgeStyle=orthogonalEdgeStyle;rounded=0;orthogonalLoop=1;jettySize=auto;html=1;exitX=0.635;exitY=1.031;exitDx=0;exitDy=0;entryX=0.396;entryY=1.042;entryDx=0;entryDy=0;entryPerimeter=0;exitPerimeter=0;" parent="1" source="i9VxTOtF9vTsRiVHvW3n-62" target="i9VxTOtF9vTsRiVHvW3n-62" edge="1">
          <mxGeometry relative="1" as="geometry">
            <mxPoint x="1512" y="-100.26999999999998" as="sourcePoint" />
            <mxPoint x="1412" y="-100.26999999999998" as="targetPoint" />
            <Array as="points">
              <mxPoint x="1439" y="190" />
              <mxPoint x="1411" y="190" />
            </Array>
          </mxGeometry>
        </mxCell>
        <mxCell id="2" value="" style="endArrow=classic;html=1;rounded=0;edgeStyle=orthogonalEdgeStyle;entryX=1;entryY=0.25;entryDx=0;entryDy=0;" parent="1" source="i9VxTOtF9vTsRiVHvW3n-6" target="i9VxTOtF9vTsRiVHvW3n-6" edge="1">
          <mxGeometry width="50" height="50" relative="1" as="geometry">
            <mxPoint x="800" y="690" as="sourcePoint" />
            <mxPoint x="1010" y="480" as="targetPoint" />
            <Array as="points">
              <mxPoint x="1130" y="470" />
              <mxPoint x="1130" y="455" />
            </Array>
          </mxGeometry>
        </mxCell>
        <mxCell id="11" value="" style="endArrow=classic;html=1;rounded=0;edgeStyle=orthogonalEdgeStyle;" parent="1" source="i9VxTOtF9vTsRiVHvW3n-54" target="i9VxTOtF9vTsRiVHvW3n-57" edge="1">
          <mxGeometry width="50" height="50" relative="1" as="geometry">
            <mxPoint x="1030" y="-10" as="sourcePoint" />
            <mxPoint x="1080" y="-60" as="targetPoint" />
            <Array as="points">
              <mxPoint x="1190" y="-90" />
              <mxPoint x="1190" y="-90" />
            </Array>
          </mxGeometry>
        </mxCell>
        <mxCell id="12" value="" style="endArrow=classic;html=1;rounded=0;edgeStyle=orthogonalEdgeStyle;" parent="1" source="i9VxTOtF9vTsRiVHvW3n-57" target="i9VxTOtF9vTsRiVHvW3n-54" edge="1">
          <mxGeometry width="50" height="50" relative="1" as="geometry">
            <mxPoint x="1080" y="-40" as="sourcePoint" />
            <mxPoint x="1030" y="10" as="targetPoint" />
            <Array as="points">
              <mxPoint x="1180" y="-70" />
              <mxPoint x="1180" y="-70" />
            </Array>
          </mxGeometry>
        </mxCell>
        <mxCell id="13" value="" style="endArrow=classic;html=1;rounded=0;edgeStyle=orthogonalEdgeStyle;" parent="1" target="i9VxTOtF9vTsRiVHvW3n-4" edge="1">
          <mxGeometry width="50" height="50" relative="1" as="geometry">
            <mxPoint x="590" y="470" as="sourcePoint" />
            <mxPoint x="650" y="460" as="targetPoint" />
          </mxGeometry>
        </mxCell>
        <mxCell id="24" value="" style="endArrow=classic;html=1;rounded=0;edgeStyle=orthogonalEdgeStyle;" edge="1" parent="1" source="i9VxTOtF9vTsRiVHvW3n-62" target="i9VxTOtF9vTsRiVHvW3n-57">
          <mxGeometry width="50" height="50" relative="1" as="geometry">
            <mxPoint x="1510" y="10" as="sourcePoint" />
            <mxPoint x="1560" y="-40" as="targetPoint" />
            <Array as="points">
              <mxPoint x="1430" y="10" />
              <mxPoint x="1430" y="10" />
            </Array>
          </mxGeometry>
        </mxCell>
      </root>
    </mxGraphModel>
  </diagram>
</mxfile>
